<?xml version="1.0" encoding="UTF-8"?>
<svg version="1.1" xmlns="http://www.w3.org/2000/svg" width="50" height="50">
<path d="M0 0 C16.5 0 33 0 50 0 C50 12.87 50 25.74 50 39 C46.7 39 43.4 39 40 39 C40 37.02 40 35.04 40 33 C39.01 33 38.02 33 37 33 C37 34.98 37 36.96 37 39 C29.08 39 21.16 39 13 39 C13 37.02 13 35.04 13 33 C12.01 33 11.02 33 10 33 C10 34.98 10 36.96 10 39 C6.7 39 3.4 39 0 39 C0 26.13 0 13.26 0 0 Z M13 9 C12.71637892 13.8215583 13.24582588 17.50492881 15 22 C14.030625 22.268125 13.06125 22.53625 12.0625 22.8125 C11.051875 23.204375 10.04125 23.59625 9 24 C8.67 24.99 8.34 25.98 8 27 C13.61 27 19.22 27 25 27 C23.75453595 23.26360784 22.36595047 22.81243487 19 21 C19.16757812 20.22914062 19.33515625 19.45828125 19.5078125 18.6640625 C19.71148437 17.66117188 19.91515625 16.65828125 20.125 15.625 C20.33382813 14.62726562 20.54265625 13.62953125 20.7578125 12.6015625 C20.83773438 11.74304688 20.91765625 10.88453125 21 10 C19.16734675 7.73160017 19.16734675 7.73160017 16.4375 7.8125 C14.05310277 7.72996677 14.05310277 7.72996677 13 9 Z M39 14 C38.67 15.65 38.34 17.3 38 19 C38.99 19.495 38.99 19.495 40 20 C40 18.02 40 16.04 40 14 C39.67 14 39.34 14 39 14 Z M34 16 C35 19 35 19 35 19 Z M31 19 C32 21 32 21 32 21 Z " fill="#218BE6" transform="translate(0,7)"/>
</svg>
